<svg width="24" height="24" viewBox="0 0 24 24" fill="none" xmlns="http://www.w3.org/2000/svg">
<path d="M12.0714 3.57129C12.4692 3.57129 12.8508 3.72932 13.1321 4.01063C13.4134 4.29193 13.7857 4.67346 13.7857 5.07129V10.357H19.0714C19.4692 10.357 19.8508 10.7293 20.1321 11.0106C20.4134 11.2919 20.5714 11.6735 20.5714 12.0713C20.5714 12.4691 20.4134 12.8506 20.1321 13.1319C19.8508 13.4133 19.4692 13.7141 19.0714 13.7141H13.7857V19.0713C13.7857 19.4691 13.4134 19.8506 13.1321 20.1319C12.8508 20.4133 12.4692 20.5713 12.0714 20.5713C11.6736 20.5713 11.2921 20.4133 11.0108 20.1319C10.7294 19.8506 10.3571 19.4691 10.3571 19.0713V13.7141H5.07141C4.67359 13.7141 4.29206 13.4133 4.01075 13.1319C3.72945 12.8506 3.57141 12.4691 3.57141 12.0713C3.57141 11.6735 3.72945 11.2919 4.01075 11.0106C4.29206 10.7293 4.67359 10.357 5.07141 10.357H10.3571V5.07129C10.3571 4.67346 10.7294 4.29193 11.0108 4.01063C11.2921 3.72932 11.6736 3.57129 12.0714 3.57129Z" fill="#EA8D45"/>
</svg>
