<svg width="33" height="33" viewBox="0 0 33 33" fill="none" xmlns="http://www.w3.org/2000/svg">
<g filter="url(#filter0_d_1172_462)">
<circle cx="16.5" cy="16.5" r="12.5" fill="#EA8D45"/>
</g>
<path d="M22.125 14.625H18.375V10.875C18.375 10.3777 18.1775 9.90081 17.8258 9.54917C17.4742 9.19754 16.9973 9 16.5 9C16.0027 9 15.5258 9.19754 15.1742 9.54917C14.8225 9.90081 14.625 10.3777 14.625 10.875L14.6916 14.625H10.875C10.3777 14.625 9.90081 14.8225 9.54917 15.1742C9.19754 15.5258 9 16.0027 9 16.5C9 16.9973 9.19754 17.4742 9.54917 17.8258C9.90081 18.1775 10.3777 18.375 10.875 18.375L14.6916 18.3084L14.625 22.125C14.625 22.6223 14.8225 23.0992 15.1742 23.4508C15.5258 23.8025 16.0027 24 16.5 24C16.9973 24 17.4742 23.8025 17.8258 23.4508C18.1775 23.0992 18.375 22.6223 18.375 22.125V18.3084L22.125 18.375C22.6223 18.375 23.0992 18.1775 23.4508 17.8258C23.8025 17.4742 24 16.9973 24 16.5C24 16.0027 23.8025 15.5258 23.4508 15.1742C23.0992 14.8225 22.6223 14.625 22.125 14.625Z" fill="white"/>
<defs>
<filter id="filter0_d_1172_462" x="0" y="0" width="33" height="33" filterUnits="userSpaceOnUse" color-interpolation-filters="sRGB">
<feFlood flood-opacity="0" result="BackgroundImageFix"/>
<feColorMatrix in="SourceAlpha" type="matrix" values="0 0 0 0 0 0 0 0 0 0 0 0 0 0 0 0 0 0 127 0" result="hardAlpha"/>
<feOffset/>
<feGaussianBlur stdDeviation="2"/>
<feComposite in2="hardAlpha" operator="out"/>
<feColorMatrix type="matrix" values="0 0 0 0 0 0 0 0 0 0 0 0 0 0 0 0 0 0 0.25 0"/>
<feBlend mode="normal" in2="BackgroundImageFix" result="effect1_dropShadow_1172_462"/>
<feBlend mode="normal" in="SourceGraphic" in2="effect1_dropShadow_1172_462" result="shape"/>
</filter>
</defs>
</svg>
