<svg width="16" height="16" viewBox="0 0 16 16" fill="none" xmlns="http://www.w3.org/2000/svg">
<path d="M4.5 2C3.83696 2 3.20107 2.26339 2.73223 2.73223C2.26339 3.20107 2 3.83696 2 4.5V11.5C2 12.163 2.26339 12.7989 2.73223 13.2678C3.20107 13.7366 3.83696 14 4.5 14H8.172C8.83474 13.9999 9.47031 13.7366 9.939 13.268L13.268 9.939C13.7366 9.47031 13.9999 8.83474 14 8.172V4.5C14 3.83696 13.7366 3.20107 13.2678 2.73223C12.7989 2.26339 12.163 2 11.5 2H4.5ZM3 4.5C3 4.10218 3.15804 3.72064 3.43934 3.43934C3.72064 3.15804 4.10218 3 4.5 3H11.5C11.8978 3 12.2794 3.15804 12.5607 3.43934C12.842 3.72064 13 4.10218 13 4.5V8H10.5C9.83696 8 9.20107 8.26339 8.73223 8.73223C8.26339 9.20107 8 9.83696 8 10.5V13H4.5C4.10218 13 3.72064 12.842 3.43934 12.5607C3.15804 12.2794 3 11.8978 3 11.5V4.5ZM9 12.75V10.5C9 10.1022 9.15804 9.72064 9.43934 9.43934C9.72064 9.15804 10.1022 9 10.5 9H12.75C12.6953 9.08267 12.632 9.16 12.56 9.232L9.232 12.561C9.16067 12.6317 9.08333 12.695 9 12.751" fill="#EA8D45"/>
</svg>
