<svg width="20" height="20" viewBox="0 0 20 20" fill="none" xmlns="http://www.w3.org/2000/svg">
<path d="M9.44727 10.8015L9.58333 10.8897L9.7194 10.8015L16.4021 6.46613C16.4116 6.5326 16.4167 6.59991 16.4167 6.66675V14.1667C16.4167 14.5425 16.2674 14.9028 16.0017 15.1685C15.7361 15.4342 15.3757 15.5834 15 15.5834H4.16667C3.79095 15.5834 3.43061 15.4342 3.16493 15.1685C2.89926 14.9028 2.75 14.5425 2.75 14.1667V6.66675C2.75 6.59991 2.75511 6.5326 2.7646 6.46613L9.44727 10.8015ZM15 3.91675H4.16667C3.43732 3.91675 2.73785 4.20648 2.22212 4.7222C1.7064 5.23793 1.41667 5.9374 1.41667 6.66675V14.1667C1.41667 14.8961 1.7064 15.5956 2.22212 16.1113C2.73785 16.627 3.43732 16.9167 4.16667 16.9167H15C15.7293 16.9167 16.4288 16.627 16.9445 16.1113C17.4603 15.5956 17.75 14.8961 17.75 14.1667V6.66675C17.75 5.9374 17.4603 5.23793 16.9445 4.7222C16.4288 4.20648 15.7293 3.91675 15 3.91675ZM15 5.25008C15.2265 5.25008 15.4328 5.29847 15.6137 5.38691L9.58333 9.28571L3.55298 5.38691C3.73385 5.29847 3.94017 5.25008 4.16667 5.25008H15Z" fill="#EA8D45" stroke="#EA8D45" stroke-width="0.5"/>
</svg>
