<svg width="26" height="25" viewBox="0 0 26 25" fill="none" xmlns="http://www.w3.org/2000/svg">
<path d="M13.3239 21.7445C11.1494 21.7445 9.2252 21.0846 7.55123 19.7647C5.87726 18.4449 4.79004 16.7578 4.28957 14.7035C4.22054 14.4446 4.27231 14.2075 4.44489 13.9921C4.61746 13.7767 4.85044 13.6514 5.14381 13.6162C5.41993 13.5817 5.67017 13.6335 5.89451 13.7716C6.11886 13.9096 6.27418 14.1167 6.36047 14.3928C6.77464 15.946 7.62889 17.2144 8.9232 18.1981C10.2175 19.1818 11.6844 19.6736 13.3239 19.6736C15.343 19.6736 17.0559 18.9705 18.4628 17.5644C19.8696 16.1583 20.5727 14.4453 20.572 12.4255C20.5713 10.4057 19.8682 8.69303 18.4628 7.28758C17.0573 5.88214 15.3444 5.17872 13.3239 5.17734C12.1331 5.17734 11.02 5.45346 9.98453 6.0057C8.94908 6.55794 8.07758 7.31727 7.37003 8.28368H9.18206C9.47544 8.28368 9.72153 8.38309 9.92033 8.58189C10.1191 8.7807 10.2182 9.02645 10.2175 9.31913C10.2168 9.61182 10.1174 9.85791 9.9193 10.0574C9.72118 10.2569 9.47544 10.356 9.18206 10.3546H5.04027C4.74689 10.3546 4.50115 10.2552 4.30303 10.0564C4.10492 9.85756 4.00551 9.61182 4.00482 9.31913V5.17734C4.00482 4.88396 4.10422 4.63822 4.30303 4.4401C4.50184 4.24199 4.74758 4.14258 5.04027 4.14189C5.33296 4.1412 5.57905 4.24061 5.77854 4.4401C5.97804 4.6396 6.0771 4.88534 6.07572 5.17734V6.5752C6.95585 5.47072 8.0303 4.61647 9.29907 4.01246C10.5678 3.40845 11.9094 3.10645 13.3239 3.10645C14.6182 3.10645 15.8307 3.35254 16.9614 3.84472C18.0921 4.3369 19.0758 5.00097 19.9124 5.83692C20.749 6.67287 21.4135 7.65655 21.9056 8.78795C22.3978 9.91935 22.6436 11.1319 22.6429 12.4255C22.6422 13.7191 22.3964 14.9316 21.9056 16.063C21.4148 17.1944 20.7504 18.1781 19.9124 19.014C19.0744 19.85 18.0907 20.5144 16.9614 21.0073C15.8321 21.5001 14.6195 21.7459 13.3239 21.7445ZM14.3593 12.0113L16.9479 14.5999C17.1378 14.7897 17.2327 15.0314 17.2327 15.3247C17.2327 15.6181 17.1378 15.8597 16.9479 16.0495C16.7581 16.2394 16.5165 16.3343 16.2231 16.3343C15.9297 16.3343 15.6881 16.2394 15.4983 16.0495L12.599 13.1503C12.4955 13.0467 12.4178 12.9304 12.3661 12.8013C12.3143 12.6723 12.2884 12.5383 12.2884 12.3996V8.28368C12.2884 7.99031 12.3878 7.74456 12.5866 7.54645C12.7854 7.34833 13.0312 7.24893 13.3239 7.24824C13.6165 7.24755 13.8626 7.34695 14.0621 7.54645C14.2616 7.74594 14.3607 7.99169 14.3593 8.28368V12.0113Z" fill="#EA8D45"/>
</svg>
