<svg width="30" height="30" viewBox="0 0 30 30" fill="none" xmlns="http://www.w3.org/2000/svg">
<path d="M13.6821 4.13038L13.6455 4.09377H13.5937H4.6875H4.63572L4.59911 4.13038L4.13036 4.59913L4.09375 4.63574V4.68752V13.5938V13.6455L4.13036 13.6822L4.59911 14.1509L4.63572 14.1875H4.6875H4.68911H4.69091H4.69288H4.69505H4.6974H4.69992H4.70264H4.70553H4.7086H4.71185H4.71528H4.71889H4.72268H4.72664H4.73078H4.73509H4.73958H4.74424H4.74908H4.75408H4.75926H4.76461H4.77013H4.77582H4.78168H4.7877H4.7939H4.80026H4.80678H4.81347H4.82032H4.82734H4.83452H4.84186H4.84937H4.85703H4.86486H4.87284H4.88098H4.88928H4.89774H4.90635H4.91512H4.92404H4.93312H4.94235H4.95174H4.96127H4.97096H4.98079H4.99078H5.00092H5.0112H5.02163H5.03221H5.04294H5.05381H5.06482H5.07598H5.08728H5.09872H5.11031H5.12204H5.1339H5.14591H5.15806H5.17034H5.18276H5.19532H5.20801H5.22084H5.2338H5.2469H5.26013H5.27349H5.28698H5.30061H5.31436H5.32825H5.34226H5.3564H5.37067H5.38506H5.39958H5.41423H5.429H5.44389H5.45891H5.47404H5.4893H5.50468H5.52018H5.5358H5.55154H5.56739H5.58337H5.59946H5.61566H5.63198H5.64841H5.66496H5.68162H5.69839H5.71527H5.73226H5.74937H5.76658H5.7839H5.80132H5.81886H5.8365H5.85424H5.87209H5.89005H5.90811H5.92627H5.94453H5.96289H5.98135H5.99992H6.01858H6.03734H6.0562H6.07515H6.0942H6.11334H6.13258H6.15192H6.17134H6.19086H6.21047H6.23017H6.24996H6.26984H6.28981H6.30987H6.33001H6.35024H6.37056H6.39096H6.41145H6.43202H6.45267H6.4734H6.49422H6.51512H6.53609H6.55715H6.57828H6.5995H6.62078H6.64215H6.66359H6.68511H6.7067H6.72836H6.7501H6.7719H6.79378H6.81573H6.83775H6.85984H6.882H6.90422H6.92651H6.94887H6.97129H6.99378H7.01633H7.03895H7.06163H7.08437H7.10717H7.13003H7.15295H7.17593H7.19896H7.22206H7.24521H7.26841H7.29168H7.31499H7.33837H7.36179H7.38527H7.40879H7.43237H7.456H7.47968H7.50341H7.52718H7.551H7.57487H7.59879H7.62274H7.64675H7.6708H7.69489H7.71902H7.74319H7.76741H7.79166H7.81596H7.84029H7.86466H7.88907H7.91351H7.93799H7.9625H7.98705H8.01163H8.03625H8.06089H8.08557H8.11028H8.13502H8.15978H8.18458H8.2094H8.23425H8.25913H8.28403H8.30895H8.3339H8.35888H8.38387H8.40889H8.43393H8.45899H8.48407H8.50917H8.53428H8.55942H8.58457H8.60973H8.63491H8.66011H8.68532H8.71054H8.73578H8.76102H8.78628H8.81155H8.83683H8.86211H8.88741H8.91271H8.93801H8.96333H8.98865H9.01397H9.0393H9.06463H9.08996H9.11529H9.14062H9.16596H9.19129H9.21662H9.24195H9.26728H9.2926H9.31792H9.34324H9.36854H9.39384H9.41914H9.44442H9.4697H9.49497H9.52023H9.54547H9.57071H9.59593H9.62114H9.64634H9.67152H9.69668H9.72183H9.74697H9.77208H9.79718H9.82226H9.84732H9.87236H9.89738H9.92237H9.94734H9.97229H9.99722H10.0221H10.047H10.0718H10.0967H10.1215H10.1462H10.171H10.1957H10.2204H10.245H10.2696H10.2942H10.3187H10.3433H10.3677H10.3922H10.4166H10.441H10.4653H10.4896H10.5138H10.5381H10.5622H10.5864H10.6105H10.6345H10.6585H10.6825H10.7064H10.7302H10.7541H10.7778H10.8016H10.8252H10.8489H10.8725H10.896H10.9195H10.9429H10.9663H10.9896H11.0128H11.036H11.0592H11.0823H11.1053H11.1283H11.1512H11.1741H11.1969H11.2196H11.2423H11.2649H11.2875H11.31H11.3324H11.3547H11.377H11.3993H11.4214H11.4435H11.4655H11.4875H11.5093H11.5312H11.5529H11.5746H11.5961H11.6177H11.6391H11.6605H11.6818H11.703H11.7241H11.7452H11.7661H11.787H11.8078H11.8286H11.8492H11.8698H11.8903H11.9107H11.931H11.9512H11.9714H11.9914H12.0114H12.0313H12.0511H12.0708H12.0904H12.1099H12.1293H12.1487H12.1679H12.1871H12.2061H12.2251H12.2439H12.2627H12.2813H12.2999H12.3184H12.3367H12.355H12.3731H12.3912H12.4092H12.427H12.4448H12.4624H12.4799H12.4974H12.5147H12.5319H12.549H12.566H12.5829H12.5996H12.6163H12.6328H12.6493H12.6656H12.6818H12.6979H12.7139H12.7297H12.7454H12.7611H12.7766H12.7919H12.8072H12.8223H12.8374H12.8523H12.867H12.8817H12.8962H12.9106H12.9248H12.939H12.953H12.9669H12.9806H12.9943H13.0078H13.0211H13.0344H13.0474H13.0604H13.0732H13.0859H13.0985H13.1109H13.1232H13.1353H13.1473H13.1592H13.1709H13.1825H13.194H13.2053H13.2164H13.2274H13.2383H13.249H13.2596H13.27H13.2803H13.2905H13.3005H13.3103H13.32H13.3295H13.3389H13.3481H13.3572H13.3661H13.3749H13.3835H13.392H13.4003H13.4084H13.4164H13.4242H13.4319H13.4394H13.4467H13.4539H13.4609H13.4678H13.4745H13.481H13.4874H13.4935H13.4996H13.5054H13.5111H13.5166H13.522H13.5272H13.5322H13.537H13.5417H13.5462H13.5505H13.5546H13.5586H13.5624H13.566H13.5694H13.5726H13.5757H13.5786H13.5813H13.5839H13.5862H13.5884H13.5903H13.5921H13.5937H13.6455L13.6821 14.1509L14.1509 13.6822L14.1875 13.6455V13.5938V4.68752V4.63574L14.1509 4.59913L13.6821 4.13038ZM26.6484 8.77988V8.72811L26.6118 8.6915L21.3085 3.38817L21.2719 3.35156H21.2201H20.5572H20.5055L20.4688 3.38817L17.7485 6.10848L15.9684 7.88859L15.3859 8.47113L15.2231 8.63395L15.1802 8.6768L15.1692 8.68778L15.1665 8.69056L15.1658 8.69126L15.1656 8.69144L15.2539 8.77988L15.1655 8.69149L15.1289 8.72811V8.77988V9.44278V9.49456L15.1655 9.53117L20.4688 14.8345L20.5054 14.8711H20.5572H21.2201H21.2719L21.3085 14.8345L26.6118 9.53117L26.6484 9.49456V9.44278V8.77988ZM14.1509 25.4009L14.1875 25.3643V25.3125V25.3109V25.3091V25.3071V25.3049V25.3025V25.3V25.2972V25.2943V25.2912V25.2879V25.2844V25.2807V25.2769V25.2728V25.2686V25.2642V25.2596V25.2549V25.2499V25.2448V25.2395V25.234V25.2284V25.2226V25.2166V25.2104V25.2041V25.1976V25.1909V25.184V25.177V25.1698V25.1625V25.155V25.1473V25.1394V25.1314V25.1232V25.1149V25.1064V25.0977V25.0889V25.0799V25.0707V25.0614V25.052V25.0423V25.0326V25.0226V25.0125V25.0023V24.9919V24.9814V24.9707V24.9598V24.9488V24.9377V24.9264V24.9149V24.9033V24.8916V24.8797V24.8677V24.8555V24.8432V24.8307V24.8181V24.8054V24.7925V24.7795V24.7663V24.753V24.7396V24.726V24.7123V24.6985V24.6845V24.6704V24.6561V24.6418V24.6273V24.6126V24.5979V24.583V24.5679V24.5528V24.5375V24.5221V24.5066V24.4909V24.4752V24.4593V24.4432V24.4271V24.4108V24.3945V24.378V24.3614V24.3446V24.3278V24.3108V24.2937V24.2765V24.2592V24.2418V24.2243V24.2066V24.1889V24.171V24.153V24.1349V24.1167V24.0984V24.08V24.0615V24.0429V24.0242V24.0054V23.9865V23.9674V23.9483V23.9291V23.9098V23.8903V23.8708V23.8512V23.8315V23.8117V23.7918V23.7718V23.7517V23.7315V23.7113V23.6909V23.6704V23.6499V23.6293V23.6086V23.5878V23.5669V23.5459V23.5248V23.5037V23.4825V23.4611V23.4398V23.4183V23.3967V23.3751V23.3534V23.3316V23.3097V23.2878V23.2658V23.2437V23.2215V23.1993V23.177V23.1546V23.1321V23.1096V23.087V23.0644V23.0416V23.0188V22.996V22.973V22.9501V22.927V22.9039V22.8807V22.8574V22.8341V22.8108V22.7873V22.7639V22.7403V22.7167V22.6931V22.6694V22.6456V22.6218V22.5979V22.574V22.55V22.526V22.5019V22.4778V22.4536V22.4293V22.4051V22.3808V22.3564V22.332V22.3075V22.283V22.2585V22.2339V22.2093V22.1846V22.1599V22.1352V22.1104V22.0856V22.0607V22.0358V22.0109V21.9859V21.9609V21.9359V21.9108V21.8857V21.8606V21.8355V21.8103V21.7851V21.7599V21.7346V21.7093V21.684V21.6586V21.6333V21.6079V21.5825V21.5571V21.5316V21.5061V21.4807V21.4551V21.4296V21.4041V21.3785V21.353V21.3274V21.3018V21.2762V21.2505V21.2249V21.1992V21.1736V21.1479V21.1222V21.0966V21.0709V21.0452V21.0195V20.9938V20.968V20.9423V20.9166V20.8909V20.8652V20.8395V20.8137V20.788V20.7623V20.7366V20.7109V20.6852V20.6595V20.6338V20.6081V20.5824V20.5568V20.5311V20.5055V20.4798V20.4542V20.4286V20.403V20.3774V20.3518V20.3262V20.3007V20.2752V20.2497V20.2242V20.1987V20.1732V20.1478V20.1224V20.097V20.0716V20.0463V20.021V19.9957V19.9704V19.9452V19.9199V19.8948V19.8696V19.8445V19.8194V19.7943V19.7693V19.7443V19.7193V19.6944V19.6695V19.6446V19.6198V19.595V19.5702V19.5455V19.5208V19.4962V19.4716V19.4471V19.4226V19.3981V19.3737V19.3493V19.325V19.3007V19.2765V19.2523V19.2281V19.204V19.18V19.156V19.1321V19.1082V19.0843V19.0606V19.0368V19.0132V18.9896V18.966V18.9425V18.9191V18.8957V18.8724V18.8491V18.8259V18.8028V18.7797V18.7567V18.7338V18.7109V18.6881V18.6653V18.6427V18.62V18.5975V18.575V18.5526V18.5303V18.5081V18.4859V18.4638V18.4417V18.4198V18.3979V18.3761V18.3544V18.3327V18.3112V18.2897V18.2683V18.2469V18.2257V18.2045V18.1834V18.1624V18.1415V18.1207V18.1V18.0793V18.0588V18.0383V18.0179V17.9976V17.9774V17.9573V17.9373V17.9174V17.8975V17.8778V17.8582V17.8386V17.8192V17.7999V17.7806V17.7615V17.7424V17.7235V17.7046V17.6859V17.6673V17.6487V17.6303V17.612V17.5938V17.5757V17.5577V17.5398V17.522V17.5043V17.4868V17.4693V17.452V17.4348V17.4177V17.4007V17.3838V17.367V17.3504V17.3339V17.3175V17.3012V17.285V17.269V17.253V17.2372V17.2216V17.206V17.1906V17.1753V17.1601V17.145V17.1301V17.1153V17.1007V17.0861V17.0717V17.0575V17.0433V17.0293V17.0154V17.0017V16.9881V16.9746V16.9613V16.9481V16.9351V16.9222V16.9094V16.8967V16.8843V16.8719V16.8597V16.8476V16.8357V16.824V16.8123V16.8009V16.7895V16.7783V16.7673V16.7564V16.7457V16.7351V16.7247V16.7144V16.7043V16.6943V16.6845V16.6749V16.6654V16.656V16.6468V16.6378V16.6289V16.6202V16.6117V16.6033V16.5951V16.587V16.5792V16.5714V16.5639V16.5565V16.5493V16.5422V16.5353V16.5286V16.5221V16.5157V16.5095V16.5034V16.4976V16.4919V16.4864V16.4811V16.4759V16.4709V16.4661V16.4615V16.4571V16.4528V16.4487V16.4448V16.4411V16.4376V16.4342V16.4311V16.4281V16.4253V16.4227V16.4203V16.4181V16.416V16.4142V16.4125V16.4111V16.4098V16.4087V16.4078V16.4072V16.4067V16.4064L14.0625 16.4063H14.1875C14.1875 16.0784 13.9217 15.8125 13.5937 15.8125H4.6875H4.63572L4.59911 15.8491L4.13036 16.3179L4.09375 16.3545V16.4063V25.3125V25.3643L4.13036 25.4009L4.59911 25.8697L4.63572 25.9063H4.6875H13.5937H13.6455L13.6821 25.8697L14.1509 25.4009ZM25.4009 15.8491L25.3643 15.8125H25.3125H16.4062H16.3545L16.3179 15.8491L15.8491 16.3179L15.8125 16.3545V16.4063V16.4079V16.4097V16.4117V16.4139V16.4162V16.4188V16.4215V16.4245V16.4276V16.4309V16.4344V16.4381V16.4419V16.446V16.4502V16.4546V16.4592V16.4639V16.4689V16.474V16.4793V16.4848V16.4904V16.4962V16.5022V16.5084V16.5147V16.5212V16.5279V16.5347V16.5418V16.549V16.5563V16.5638V16.5715V16.5794V16.5874V16.5956V16.6039V16.6124V16.6211V16.6299V16.6389V16.6481V16.6574V16.6668V16.6764V16.6862V16.6962V16.7062V16.7165V16.7269V16.7374V16.7481V16.759V16.77V16.7811V16.7924V16.8039V16.8155V16.8272V16.8391V16.8511V16.8633V16.8756V16.8881V16.9007V16.9134V16.9263V16.9393V16.9525V16.9658V16.9792V16.9928V17.0065V17.0203V17.0343V17.0484V17.0626V17.077V17.0915V17.1062V17.1209V17.1358V17.1508V17.166V17.1813V17.1967V17.2122V17.2278V17.2436V17.2595V17.2755V17.2917V17.3079V17.3243V17.3408V17.3574V17.3742V17.391V17.408V17.4251V17.4423V17.4596V17.477V17.4945V17.5122V17.5299V17.5478V17.5658V17.5838V17.602V17.6203V17.6387V17.6572V17.6759V17.6946V17.7134V17.7323V17.7513V17.7705V17.7897V17.809V17.8284V17.8479V17.8676V17.8873V17.9071V17.927V17.947V17.9671V17.9872V18.0075V18.0279V18.0483V18.0689V18.0895V18.1102V18.131V18.1519V18.1729V18.1939V18.2151V18.2363V18.2576V18.279V18.3005V18.322V18.3437V18.3654V18.3872V18.409V18.431V18.453V18.4751V18.4973V18.5195V18.5418V18.5642V18.5866V18.6092V18.6318V18.6544V18.6771V18.6999V18.7228V18.7457V18.7687V18.7918V18.8149V18.8381V18.8613V18.8846V18.908V18.9314V18.9549V18.9785V19.0021V19.0257V19.0494V19.0732V19.097V19.1209V19.1448V19.1688V19.1928V19.2169V19.241V19.2652V19.2894V19.3137V19.338V19.3624V19.3868V19.4113V19.4358V19.4603V19.4849V19.5095V19.5342V19.5589V19.5836V19.6084V19.6332V19.6581V19.683V19.7079V19.7329V19.7579V19.7829V19.8079V19.833V19.8582V19.8833V19.9085V19.9337V19.9589V19.9842V20.0095V20.0348V20.0601V20.0855V20.1109V20.1363V20.1617V20.1872V20.2126V20.2381V20.2636V20.2892V20.3147V20.3403V20.3658V20.3914V20.417V20.4426V20.4683V20.4939V20.5195V20.5452V20.5709V20.5965V20.6222V20.6479V20.6736V20.6993V20.725V20.7507V20.7764V20.8022V20.8279V20.8536V20.8793V20.905V20.9308V20.9565V20.9822V21.0079V21.0336V21.0593V21.085V21.1107V21.1363V21.162V21.1877V21.2133V21.239V21.2646V21.2902V21.3158V21.3414V21.367V21.3925V21.4181V21.4436V21.4691V21.4946V21.5201V21.5455V21.571V21.5964V21.6218V21.6472V21.6725V21.6978V21.7231V21.7484V21.7736V21.7988V21.824V21.8492V21.8743V21.8994V21.9245V21.9495V21.9745V21.9995V22.0244V22.0493V22.0742V22.099V22.1238V22.1485V22.1733V22.1979V22.2226V22.2472V22.2717V22.2962V22.3207V22.3451V22.3695V22.3938V22.4181V22.4423V22.4665V22.4907V22.5148V22.5388V22.5628V22.5867V22.6106V22.6344V22.6582V22.6819V22.7056V22.7292V22.7528V22.7763V22.7997V22.8231V22.8464V22.8697V22.8929V22.916V22.9391V22.9621V22.985V23.0079V23.0307V23.0535V23.0761V23.0987V23.1213V23.1437V23.1661V23.1885V23.2107V23.2329V23.255V23.277V23.299V23.3209V23.3427V23.3644V23.3861V23.4076V23.4291V23.4505V23.4719V23.4931V23.5143V23.5353V23.5563V23.5772V23.5981V23.6188V23.6395V23.66V23.6805V23.7009V23.7212V23.7414V23.7615V23.7815V23.8014V23.8212V23.841V23.8606V23.8801V23.8996V23.9189V23.9382V23.9573V23.9764V23.9953V24.0142V24.0329V24.0515V24.0701V24.0885V24.1068V24.125V24.1431V24.1611V24.179V24.1968V24.2145V24.232V24.2495V24.2668V24.284V24.3011V24.3181V24.335V24.3518V24.3684V24.3849V24.4013V24.4176V24.4338V24.4498V24.4658V24.4816V24.4972V24.5128V24.5282V24.5435V24.5587V24.5737V24.5887V24.6035V24.6181V24.6327V24.6471V24.6613V24.6755V24.6895V24.7034V24.7171V24.7307V24.7442V24.7575V24.7707V24.7837V24.7966V24.8094V24.822V24.8345V24.8469V24.8591V24.8711V24.8831V24.8948V24.9065V24.9179V24.9293V24.9404V24.9515V24.9624V24.9731V24.9837V24.9941V25.0044V25.0145V25.0245V25.0343V25.0439V25.0534V25.0628V25.072V25.081V25.0898V25.0985V25.1071V25.1155V25.1237V25.1317V25.1396V25.1474V25.1549V25.1623V25.1695V25.1766V25.1835V25.1902V25.1967V25.2031V25.2093V25.2153V25.2212V25.2269V25.2324V25.2377V25.2429V25.2479V25.2527V25.2573V25.2617V25.266V25.2701V25.274V25.2777V25.2812V25.2845V25.2877V25.2907V25.2935V25.2961V25.2985V25.3007V25.3027V25.3046V25.3062V25.3077V25.309V25.3101V25.3109V25.3116V25.3121V25.3124L15.9375 25.3125H15.8125V25.3643L15.8491 25.4009L16.3179 25.8697L16.3545 25.9063H16.4062H25.3125H25.3643L25.4009 25.8697L25.8696 25.4009L25.9062 25.3643V25.3125V16.4063V16.3545L25.8696 16.3179L25.4009 15.8491ZM6.33594 11.9453V6.33596H11.9453V11.9453H6.33594ZM20.8887 6.1393L23.8607 9.11132L20.8887 12.0834L17.9166 9.11135L20.8887 6.1393ZM6.33594 23.6641V18.0547H11.9453V23.6641H6.33594ZM18.0547 23.6641V18.0547H23.6641V23.6641H18.0547Z" fill="#FFBF69" stroke="#FFBF69" stroke-width="0.25"/>
</svg>
