<svg width="30" height="30" viewBox="0 0 30 30" fill="none" xmlns="http://www.w3.org/2000/svg">
<path fill-rule="evenodd" clip-rule="evenodd" d="M4.6875 4.21882H13.5938C13.8526 4.21882 14.0625 4.42867 14.0625 4.68757V13.5938C14.0625 13.8527 13.8526 14.0626 13.5938 14.0626H4.6875C4.4286 14.0626 4.21875 13.8527 4.21875 13.5938V4.68757C4.21875 4.42867 4.4286 4.21882 4.6875 4.21882ZM21.2201 3.47664L26.5234 8.77996C26.7065 8.96301 26.7065 9.25979 26.5234 9.44286L21.2201 14.7462C21.0371 14.9292 20.7403 14.9292 20.5572 14.7462L15.2539 9.44283C15.0709 9.25979 15.0709 8.96301 15.2539 8.77993L20.5572 3.47664C20.7403 3.29359 21.0371 3.29359 21.2201 3.47664ZM4.6875 15.9376H13.5938C13.8526 15.9376 14.0625 16.1474 14.0625 16.4063V25.3126C14.0625 25.5715 13.8526 25.7813 13.5938 25.7813H4.6875C4.4286 25.7813 4.21875 25.5715 4.21875 25.3126V16.4063C4.21875 16.1474 4.4286 15.9376 4.6875 15.9376ZM16.4063 15.9376H25.3125C25.5714 15.9376 25.7812 16.1474 25.7812 16.4063V25.3126C25.7812 25.5715 25.5714 25.7813 25.3125 25.7813H16.4063C16.1474 25.7813 15.9375 25.5715 15.9375 25.3126V16.4063C15.9375 16.1474 16.1474 15.9376 16.4063 15.9376Z" fill="#FFBF69"/>
</svg>
