<svg width="30" height="30" viewBox="0 0 30 30" fill="none" xmlns="http://www.w3.org/2000/svg">
<path d="M6.25 26.25C5.5625 26.25 4.97417 26.0054 4.485 25.5163C3.99583 25.0271 3.75083 24.4383 3.75 23.75V6.25C3.75 5.5625 3.995 4.97417 4.485 4.485C4.975 3.99583 5.56333 3.75083 6.25 3.75H23.75C24.4375 3.75 25.0263 3.995 25.5163 4.485C26.0063 4.975 26.2508 5.56333 26.25 6.25V23.75C26.25 24.4375 26.0054 25.0263 25.5163 25.5163C25.0271 26.0063 24.4383 26.2508 23.75 26.25H6.25ZM6.25 23.75H23.75V6.25H6.25V23.75ZM10 12.5C9.64583 12.5 9.34917 12.62 9.11 12.86C8.87083 13.1 8.75083 13.3967 8.75 13.75V20C8.75 20.3542 8.87 20.6512 9.11 20.8912C9.35 21.1312 9.64667 21.2508 10 21.25C10.3533 21.2492 10.6504 21.1292 10.8913 20.89C11.1321 20.6508 11.2517 20.3542 11.25 20V13.75C11.25 13.3958 11.13 13.0992 10.89 12.86C10.65 12.6208 10.3533 12.5008 10 12.5ZM15 8.75C14.6458 8.75 14.3492 8.87 14.11 9.11C13.8708 9.35 13.7508 9.64667 13.75 10V20C13.75 20.3542 13.87 20.6512 14.11 20.8912C14.35 21.1312 14.6467 21.2508 15 21.25C15.3533 21.2492 15.6504 21.1292 15.8913 20.89C16.1321 20.6508 16.2517 20.3542 16.25 20V10C16.25 9.64583 16.13 9.34917 15.89 9.11C15.65 8.87083 15.3533 8.75083 15 8.75ZM20 16.25C19.6458 16.25 19.3492 16.37 19.11 16.61C18.8708 16.85 18.7508 17.1467 18.75 17.5V20C18.75 20.3542 18.87 20.6512 19.11 20.8912C19.35 21.1312 19.6467 21.2508 20 21.25C20.3533 21.2492 20.6504 21.1292 20.8912 20.89C21.1321 20.6508 21.2517 20.3542 21.25 20V17.5C21.25 17.1458 21.13 16.8492 20.89 16.61C20.65 16.3708 20.3533 16.2508 20 16.25Z" fill="#FFBF69"/>
</svg>
