<svg width="16" height="16" viewBox="0 0 16 16" fill="none" xmlns="http://www.w3.org/2000/svg">
<path d="M15.708 14.2975C15.708 14.2971 15.7078 14.2967 15.7075 14.2964L14.6847 13.2731C13.4944 12.0825 13.4621 10.198 13.8345 8.5562C14.4273 5.94253 13.4842 3.1058 11.1997 1.39641C8.10291 -0.920737 3.71387 -0.288926 1.39653 2.80759C-0.920813 5.90411 -0.28895 10.2928 2.80783 12.6099C4.0846 13.5653 5.60611 14.0303 7.12113 14.0049C9.63561 13.9629 12.5197 13.9298 14.298 15.708C14.6874 16.0973 15.3187 16.0973 15.708 15.708C16.0972 15.3188 16.0973 14.688 15.7085 14.2986C15.7082 14.2983 15.708 14.2979 15.708 14.2975ZM7.02958 12.012C4.27731 12.012 2.04618 9.78103 2.04618 7.02899C2.04618 4.27695 4.27731 2.04601 7.02958 2.04601C9.78185 2.04601 12.013 4.27695 12.013 7.02899C12.01 9.77978 9.78063 12.009 7.02958 12.012Z" fill="#B9B9B9"/>
</svg>
