<svg width="46" height="45" viewBox="0 0 46 45" fill="none" xmlns="http://www.w3.org/2000/svg">
<circle cx="23" cy="22.5" r="22.5" fill="#F6AB70"/>
<path d="M32.6429 19.7857H26.2143V13.3571C26.2143 12.5046 25.8757 11.6871 25.2729 11.0843C24.6701 10.4815 23.8525 10.1428 23 10.1428C22.1475 10.1428 21.33 10.4815 20.7272 11.0843C20.1244 11.6871 19.7857 12.5046 19.7857 13.3571L19.8998 19.7857H13.3572C12.5047 19.7857 11.6871 20.1243 11.0843 20.7271C10.4815 21.3299 10.1429 22.1475 10.1429 23C10.1429 23.8524 10.4815 24.67 11.0843 25.2728C11.6871 25.8756 12.5047 26.2143 13.3572 26.2143L19.8998 26.1001L19.7857 32.6428C19.7857 33.4953 20.1244 34.3129 20.7272 34.9157C21.33 35.5185 22.1475 35.8571 23 35.8571C23.8525 35.8571 24.6701 35.5185 25.2729 34.9157C25.8757 34.3129 26.2143 33.4953 26.2143 32.6428V26.1001L32.6429 26.2143C33.4954 26.2143 34.3129 25.8756 34.9157 25.2728C35.5185 24.67 35.8572 23.8524 35.8572 23C35.8572 22.1475 35.5185 21.3299 34.9157 20.7271C34.3129 20.1243 33.4954 19.7857 32.6429 19.7857Z" fill="white"/>
</svg>
