<svg width="73" height="70" viewBox="0 0 73 70" fill="none" xmlns="http://www.w3.org/2000/svg">
<circle cx="36.5" cy="34.5" r="22.5" fill="#F6AB70"/>
<path d="M35.5539 23.694L35.5172 23.6574H35.4655H26.8773H26.8255L26.7889 23.694L26.3369 24.146L26.3003 24.1826V24.2344V32.8225V32.8743L26.3369 32.9109L26.7889 33.3629L26.8255 33.3995H26.8773H26.8789H26.8806H26.8825H26.8846H26.8868H26.8893H26.8919H26.8947H26.8976H26.9008H26.9041H26.9076H26.9112H26.915H26.919H26.9232H26.9275H26.932H26.9367H26.9415H26.9465H26.9517H26.957H26.9625H26.9681H26.9739H26.9799H26.986H26.9923H26.9988H27.0054H27.0121H27.0191H27.0262H27.0334H27.0408H27.0483H27.056H27.0639H27.0719H27.08H27.0883H27.0968H27.1054H27.1142H27.1231H27.1321H27.1413H27.1506H27.1601H27.1698H27.1795H27.1894H27.1995H27.2097H27.22H27.2305H27.2411H27.2519H27.2628H27.2738H27.285H27.2963H27.3078H27.3193H27.3311H27.3429H27.3549H27.367H27.3792H27.3916H27.4041H27.4167H27.4295H27.4424H27.4554H27.4685H27.4818H27.4952H27.5087H27.5223H27.5361H27.55H27.564H27.5781H27.5923H27.6067H27.6212H27.6358H27.6505H27.6653H27.6802H27.6953H27.7105H27.7258H27.7412H27.7567H27.7723H27.788H27.8039H27.8199H27.8359H27.8521H27.8684H27.8848H27.9012H27.9178H27.9345H27.9513H27.9683H27.9853H28.0024H28.0196H28.0369H28.0543H28.0718H28.0894H28.1071H28.1249H28.1428H28.1608H28.1789H28.1971H28.2154H28.2338H28.2522H28.2708H28.2894H28.3081H28.327H28.3459H28.3649H28.384H28.4031H28.4224H28.4417H28.4612H28.4807H28.5003H28.5199H28.5397H28.5595H28.5794H28.5994H28.6195H28.6396H28.6599H28.6802H28.7006H28.721H28.7415H28.7621H28.7828H28.8036H28.8244H28.8453H28.8662H28.8873H28.9084H28.9295H28.9508H28.9721H28.9934H29.0149H29.0364H29.0579H29.0795H29.1012H29.123H29.1448H29.1666H29.1886H29.2106H29.2326H29.2547H29.2769H29.2991H29.3213H29.3437H29.366H29.3885H29.411H29.4335H29.4561H29.4787H29.5014H29.5241H29.5469H29.5698H29.5926H29.6156H29.6385H29.6616H29.6846H29.7077H29.7309H29.7541H29.7773H29.8006H29.8239H29.8472H29.8706H29.894H29.9175H29.941H29.9645H29.9881H30.0117H30.0353H30.059H30.0827H30.1064H30.1302H30.154H30.1778H30.2017H30.2256H30.2495H30.2734H30.2974H30.3214H30.3454H30.3694H30.3935H30.4176H30.4417H30.4658H30.4899H30.5141H30.5383H30.5625H30.5867H30.6109H30.6352H30.6595H30.6837H30.708H30.7323H30.7567H30.781H30.8053H30.8297H30.8541H30.8784H30.9028H30.9272H30.9516H30.976H31.0004H31.0248H31.0493H31.0737H31.0981H31.1225H31.147H31.1714H31.1958H31.2202H31.2447H31.2691H31.2935H31.3179H31.3424H31.3668H31.3912H31.4156H31.44H31.4643H31.4887H31.5131H31.5374H31.5618H31.5861H31.6104H31.6347H31.659H31.6833H31.7076H31.7318H31.7561H31.7803H31.8045H31.8287H31.8528H31.877H31.9011H31.9252H31.9493H31.9734H31.9974H32.0214H32.0454H32.0694H32.0933H32.1172H32.1411H32.1649H32.1888H32.2126H32.2363H32.2601H32.2838H32.3074H32.3311H32.3547H32.3782H32.4018H32.4253H32.4487H32.4722H32.4956H32.5189H32.5422H32.5655H32.5887H32.6119H32.6351H32.6582H32.6812H32.7042H32.7272H32.7501H32.773H32.7958H32.8186H32.8414H32.8641H32.8867H32.9093H32.9318H32.9543H32.9767H32.9991H33.0214H33.0437H33.0659H33.0881H33.1102H33.1322H33.1542H33.1761H33.198H33.2198H33.2416H33.2632H33.2849H33.3064H33.3279H33.3493H33.3707H33.392H33.4132H33.4344H33.4555H33.4765H33.4975H33.5184H33.5392H33.56H33.5806H33.6012H33.6218H33.6422H33.6626H33.6829H33.7031H33.7233H33.7433H33.7633H33.7833H33.8031H33.8228H33.8425H33.8621H33.8816H33.901H33.9204H33.9396H33.9588H33.9779H33.9969H34.0158H34.0346H34.0534H34.072H34.0905H34.109H34.1274H34.1457H34.1638H34.1819H34.1999H34.2178H34.2356H34.2533H34.2709H34.2885H34.3059H34.3232H34.3404H34.3575H34.3745H34.3914H34.4082H34.4249H34.4415H34.458H34.4744H34.4907H34.5069H34.5229H34.5389H34.5547H34.5705H34.5861H34.6016H34.617H34.6323H34.6475H34.6625H34.6775H34.6923H34.707H34.7216H34.7361H34.7505H34.7647H34.7788H34.7928H34.8067H34.8205H34.8341H34.8476H34.861H34.8743H34.8874H34.9004H34.9133H34.926H34.9387H34.9512H34.9635H34.9758H34.9879H34.9999H35.0117H35.0234H35.035H35.0465H35.0578H35.0689H35.08H35.0909H35.1016H35.1122H35.1227H35.1331H35.1433H35.1533H35.1632H35.173H35.1827H35.1921H35.2015H35.2107H35.2197H35.2286H35.2374H35.246H35.2544H35.2627H35.2709H35.2789H35.2867H35.2944H35.302H35.3094H35.3166H35.3237H35.3306H35.3374H35.344H35.3504H35.3567H35.3629H35.3688H35.3747H35.3803H35.3858H35.3911H35.3963H35.4013H35.4061H35.4108H35.4152H35.4196H35.4237H35.4277H35.4315H35.4352H35.4387H35.442H35.4451H35.4481H35.4509H35.4535H35.4559H35.4582H35.4603H35.4622H35.4639H35.4655H35.5172L35.5539 33.3629L36.0059 32.9109L36.0425 32.8743V32.8225V24.2344V24.1826L36.0059 24.146L35.5539 23.694ZM48.0584 28.1806V28.1288L48.0218 28.0922L42.9079 22.9783L42.8713 22.9417H42.8195H42.1803H42.1285L42.0919 22.9783L39.4687 25.6014L37.7522 27.318L37.1905 27.8797L37.0334 28.0367L36.9921 28.078L36.9815 28.0886L36.9789 28.0913L36.9782 28.092L36.978 28.0921L37.0663 28.1806L36.978 28.0922L36.9413 28.1288V28.1806V28.8198V28.8716L36.978 28.9082L42.0919 34.0221L42.1285 34.0587H42.1802H42.8195H42.8712L42.9078 34.0221L48.0218 28.9082L48.0584 28.8716V28.8198V28.1806ZM36.0059 44.2111L36.0425 44.1745V44.1228V44.1212V44.1195V44.1175V44.1154V44.1131V44.1107V44.108V44.1052V44.1022V44.099V44.0956V44.0921V44.0884V44.0845V44.0804V44.0762V44.0717V44.0671V44.0624V44.0574V44.0523V44.0471V44.0416V44.036V44.0302V44.0243V44.0182V44.0119V44.0055V43.9989V43.9921V43.9852V43.9781V43.9708V43.9634V43.9558V43.9481V43.9402V43.9322V43.924V43.9156V43.9071V43.8984V43.8896V43.8806V43.8715V43.8622V43.8528V43.8432V43.8335V43.8236V43.8136V43.8034V43.7931V43.7826V43.772V43.7613V43.7504V43.7393V43.7282V43.7169V43.7054V43.6938V43.6821V43.6702V43.6582V43.646V43.6337V43.6213V43.6087V43.5961V43.5832V43.5703V43.5572V43.544V43.5306V43.5171V43.5035V43.4898V43.4759V43.462V43.4478V43.4336V43.4192V43.4048V43.3902V43.3754V43.3606V43.3456V43.3305V43.3153V43.3V43.2845V43.269V43.2533V43.2375V43.2216V43.2056V43.1894V43.1732V43.1568V43.1403V43.1238V43.1071V43.0903V43.0734V43.0563V43.0392V43.022V43.0047V42.9872V42.9697V42.952V42.9343V42.9164V42.8985V42.8804V42.8623V42.8441V42.8257V42.8073V42.7887V42.7701V42.7514V42.7325V42.7136V42.6946V42.6755V42.6563V42.6371V42.6177V42.5982V42.5787V42.559V42.5393V42.5195V42.4996V42.4796V42.4596V42.4394V42.4192V42.3989V42.3785V42.358V42.3375V42.3169V42.2962V42.2754V42.2545V42.2336V42.2126V42.1915V42.1703V42.1491V42.1278V42.1064V42.085V42.0635V42.0419V42.0202V41.9985V41.9767V41.9549V41.933V41.911V41.8889V41.8668V41.8447V41.8224V41.8001V41.7778V41.7554V41.7329V41.7104V41.6878V41.6651V41.6424V41.6197V41.5969V41.574V41.5511V41.5281V41.5051V41.482V41.4589V41.4357V41.4125V41.3892V41.3659V41.3426V41.3191V41.2957V41.2722V41.2487V41.2251V41.2015V41.1778V41.1541V41.1303V41.1066V41.0827V41.0589V41.035V41.011V40.9871V40.9631V40.939V40.915V40.8909V40.8667V40.8426V40.8184V40.7941V40.7699V40.7456V40.7213V40.697V40.6726V40.6482V40.6238V40.5994V40.5749V40.5504V40.5259V40.5014V40.4769V40.4523V40.4277V40.4031V40.3785V40.3539V40.3293V40.3046V40.2799V40.2552V40.2305V40.2058V40.1811V40.1564V40.1316V40.1069V40.0821V40.0574V40.0326V40.0078V39.983V39.9582V39.9334V39.9086V39.8838V39.859V39.8342V39.8094V39.7846V39.7598V39.735V39.7103V39.6855V39.6607V39.6359V39.6111V39.5864V39.5616V39.5368V39.5121V39.4874V39.4626V39.4379V39.4132V39.3885V39.3639V39.3392V39.3145V39.2899V39.2653V39.2407V39.2161V39.1916V39.167V39.1425V39.118V39.0935V39.069V39.0446V39.0202V38.9958V38.9714V38.9471V38.9228V38.8985V38.8742V38.85V38.8258V38.8016V38.7775V38.7534V38.7293V38.7052V38.6812V38.6573V38.6333V38.6094V38.5855V38.5617V38.5379V38.5142V38.4905V38.4668V38.4432V38.4196V38.396V38.3725V38.349V38.3256V38.3023V38.2789V38.2557V38.2324V38.2092V38.1861V38.163V38.14V38.117V38.0941V38.0712V38.0484V38.0256V38.0029V37.9802V37.9576V37.9351V37.9126V37.8902V37.8678V37.8455V37.8233V37.8011V37.779V37.7569V37.7349V37.713V37.6911V37.6693V37.6476V37.6259V37.6043V37.5828V37.5613V37.5399V37.5186V37.4974V37.4762V37.4551V37.4341V37.4131V37.3922V37.3714V37.3507V37.3301V37.3095V37.289V37.2686V37.2483V37.228V37.2079V37.1878V37.1678V37.1479V37.1281V37.1083V37.0887V37.0691V37.0496V37.0302V37.0109V36.9917V36.9726V36.9536V36.9346V36.9158V36.897V36.8784V36.8598V36.8414V36.823V36.8047V36.7866V36.7685V36.7505V36.7327V36.7149V36.6972V36.6797V36.6622V36.6449V36.6276V36.6105V36.5934V36.5765V36.5597V36.5429V36.5263V36.5098V36.4935V36.4772V36.461V36.445V36.429V36.4132V36.3975V36.3819V36.3665V36.3511V36.3359V36.3207V36.3057V36.2909V36.2761V36.2615V36.247V36.2326V36.2183V36.2042V36.1902V36.1763V36.1625V36.1489V36.1354V36.122V36.1087V36.0956V36.0826V36.0698V36.0571V36.0445V36.032V36.0197V36.0075V35.9955V35.9836V35.9718V35.9602V35.9487V35.9374V35.9261V35.9151V35.9041V35.8934V35.8827V35.8722V35.8619V35.8517V35.8416V35.8317V35.822V35.8123V35.8029V35.7936V35.7844V35.7754V35.7666V35.7579V35.7493V35.7409V35.7327V35.7246V35.7167V35.7089V35.7013V35.6938V35.6866V35.6794V35.6725V35.6657V35.659V35.6525V35.6462V35.6401V35.6341V35.6283V35.6226V35.6172V35.6119V35.6067V35.6017V35.5969V35.5923V35.5879V35.5836V35.5795V35.5755V35.5718V35.5682V35.5648V35.5616V35.5585V35.5556V35.553V35.5504V35.5481V35.546V35.544V35.5422V35.5406V35.5392V35.538V35.537V35.5361V35.5354V35.535V35.5347L35.9175 35.5346H36.0425C36.0425 35.2159 35.7842 34.9576 35.4655 34.9576H26.8773H26.8255L26.7889 34.9942L26.3369 35.4462L26.3003 35.4828V35.5346V44.1228V44.1745L26.3369 44.2111L26.7889 44.6631L26.8255 44.6998H26.8773H35.4655H35.5172L35.5539 44.6631L36.0059 44.2111ZM46.8541 34.9942L46.8175 34.9576H46.7657H38.1775H38.1257L38.0891 34.9942L37.6371 35.4462L37.6005 35.4828V35.5346V35.5361V35.5379V35.5398V35.5419V35.5442V35.5467V35.5493V35.5521V35.5552V35.5583V35.5617V35.5653V35.569V35.5729V35.5769V35.5812V35.5856V35.5902V35.595V35.5999V35.605V35.6103V35.6157V35.6213V35.6271V35.633V35.6391V35.6454V35.6519V35.6585V35.6652V35.6722V35.6793V35.6865V35.6939V35.7015V35.7092V35.7171V35.7252V35.7334V35.7417V35.7502V35.7589V35.7677V35.7767V35.7858V35.7951V35.8045V35.8141V35.8238V35.8337V35.8437V35.8539V35.8642V35.8747V35.8853V35.896V35.9069V35.918V35.9292V35.9405V35.9519V35.9635V35.9753V35.9872V35.9992V36.0113V36.0236V36.036V36.0486V36.0613V36.0741V36.087V36.1001V36.1134V36.1267V36.1402V36.1538V36.1675V36.1814V36.1954V36.2095V36.2237V36.2381V36.2526V36.2672V36.2819V36.2968V36.3117V36.3268V36.342V36.3574V36.3728V36.3884V36.404V36.4198V36.4357V36.4518V36.4679V36.4842V36.5005V36.517V36.5336V36.5503V36.5671V36.584V36.601V36.6181V36.6353V36.6527V36.6701V36.6876V36.7053V36.723V36.7409V36.7588V36.7769V36.795V36.8133V36.8316V36.8501V36.8686V36.8872V36.906V36.9248V36.9437V36.9627V36.9818V37.001V37.0203V37.0396V37.0591V37.0786V37.0983V37.118V37.1378V37.1577V37.1777V37.1977V37.2179V37.2381V37.2584V37.2788V37.2993V37.3198V37.3405V37.3612V37.3819V37.4028V37.4237V37.4447V37.4658V37.487V37.5082V37.5295V37.5509V37.5723V37.5938V37.6154V37.6371V37.6588V37.6806V37.7024V37.7244V37.7463V37.7684V37.7905V37.8127V37.8349V37.8572V37.8795V37.902V37.9244V37.947V37.9696V37.9922V38.0149V38.0377V38.0605V38.0833V38.1063V38.1292V38.1522V38.1753V38.1984V38.2216V38.2448V38.2681V38.2914V38.3148V38.3382V38.3616V38.3851V38.4087V38.4322V38.4559V38.4795V38.5032V38.527V38.5508V38.5746V38.5985V38.6224V38.6463V38.6703V38.6943V38.7183V38.7424V38.7665V38.7906V38.8148V38.839V38.8632V38.8874V38.9117V38.936V38.9604V38.9847V39.0091V39.0335V39.0579V39.0824V39.1069V39.1314V39.1559V39.1804V39.205V39.2296V39.2542V39.2788V39.3034V39.3281V39.3527V39.3774V39.4021V39.4268V39.4515V39.4762V39.5009V39.5257V39.5504V39.5752V39.6V39.6247V39.6495V39.6743V39.6991V39.7239V39.7487V39.7735V39.7983V39.8231V39.8479V39.8727V39.8975V39.9223V39.9471V39.9719V39.9966V40.0214V40.0462V40.071V40.0957V40.1205V40.1452V40.17V40.1947V40.2194V40.2441V40.2688V40.2935V40.3181V40.3428V40.3674V40.392V40.4166V40.4412V40.4658V40.4903V40.5148V40.5393V40.5638V40.5883V40.6127V40.6371V40.6615V40.6859V40.7102V40.7346V40.7588V40.7831V40.8073V40.8315V40.8557V40.8798V40.904V40.928V40.9521V40.9761V41.0001V41.024V41.0479V41.0718V41.0956V41.1194V41.1432V41.1669V41.1905V41.2142V41.2378V41.2613V41.2848V41.3083V41.3317V41.3551V41.3784V41.4017V41.4249V41.4481V41.4712V41.4943V41.5173V41.5403V41.5632V41.5861V41.6089V41.6317V41.6544V41.6771V41.6997V41.7222V41.7447V41.7671V41.7895V41.8118V41.8341V41.8563V41.8784V41.9004V41.9224V41.9444V41.9662V41.988V42.0098V42.0314V42.053V42.0746V42.096V42.1174V42.1387V42.16V42.1811V42.2022V42.2233V42.2442V42.2651V42.2859V42.3066V42.3273V42.3478V42.3683V42.3887V42.409V42.4293V42.4495V42.4695V42.4895V42.5094V42.5293V42.549V42.5687V42.5882V42.6077V42.6271V42.6464V42.6656V42.6847V42.7038V42.7227V42.7415V42.7603V42.7789V42.7975V42.816V42.8343V42.8526V42.8708V42.8888V42.9068V42.9247V42.9424V42.9601V42.9777V42.9951V43.0125V43.0297V43.0469V43.0639V43.0808V43.0977V43.1144V43.131V43.1475V43.1639V43.1801V43.1963V43.2124V43.2283V43.2441V43.2598V43.2754V43.2909V43.3062V43.3215V43.3366V43.3516V43.3665V43.3812V43.3959V43.4104V43.4248V43.439V43.4532V43.4672V43.4811V43.4948V43.5085V43.522V43.5353V43.5486V43.5617V43.5747V43.5875V43.6003V43.6128V43.6253V43.6376V43.6498V43.6618V43.6737V43.6855V43.6971V43.7086V43.72V43.7312V43.7423V43.7532V43.764V43.7746V43.7851V43.7954V43.8057V43.8157V43.8256V43.8354V43.845V43.8544V43.8638V43.8729V43.8819V43.8908V43.8995V43.908V43.9164V43.9247V43.9327V43.9407V43.9484V43.956V43.9635V43.9708V43.9779V43.9849V43.9917V43.9983V44.0048V44.0111V44.0172V44.0232V44.029V44.0347V44.0402V44.0455V44.0506V44.0556V44.0604V44.065V44.0695V44.0738V44.0779V44.0818V44.0856V44.0891V44.0925V44.0958V44.0988V44.1017V44.1044V44.1069V44.1092V44.1114V44.1133V44.1151V44.1167V44.1181V44.1193V44.1204V44.1212V44.1219V44.1224V44.1227L37.7255 44.1228H37.6005V44.1745L37.6371 44.2111L38.0891 44.6631L38.1257 44.6998H38.1775H46.7657H46.8175L46.8541 44.6631L47.3061 44.2111L47.3427 44.1745V44.1228V35.5346V35.4828L47.3061 35.4462L46.8541 34.9942ZM28.4713 31.2285V25.8284H33.8714V31.2285H28.4713ZM42.4999 25.6406L45.3595 28.5002L42.4999 31.3598L39.6403 28.5002L42.4999 25.6406ZM28.4713 42.5287V37.1286H33.8714V42.5287H28.4713ZM39.7716 42.5287V37.1286H45.1717V42.5287H39.7716Z" fill="white" stroke="white" stroke-width="0.25"/>
<g filter="url(#filter0_d_1327_1267)">
<path d="M58.5 44.5H53.5V39.5C53.5 38.837 53.2366 38.2011 52.7678 37.7322C52.2989 37.2634 51.663 37 51 37C50.337 37 49.7011 37.2634 49.2322 37.7322C48.7634 38.2011 48.5 38.837 48.5 39.5L48.5888 44.5H43.5C42.837 44.5 42.2011 44.7634 41.7322 45.2322C41.2634 45.7011 41 46.337 41 47C41 47.663 41.2634 48.2989 41.7322 48.7678C42.2011 49.2366 42.837 49.5 43.5 49.5L48.5888 49.4113L48.5 54.5C48.5 55.163 48.7634 55.7989 49.2322 56.2678C49.7011 56.7366 50.337 57 51 57C51.663 57 52.2989 56.7366 52.7678 56.2678C53.2366 55.7989 53.5 55.163 53.5 54.5V49.4113L58.5 49.5C59.163 49.5 59.7989 49.2366 60.2678 48.7678C60.7366 48.2989 61 47.663 61 47C61 46.337 60.7366 45.7011 60.2678 45.2322C59.7989 44.7634 59.163 44.5 58.5 44.5Z" fill="#E08239"/>
</g>
<defs>
<filter id="filter0_d_1327_1267" x="37" y="35" width="28" height="28" filterUnits="userSpaceOnUse" color-interpolation-filters="sRGB">
<feFlood flood-opacity="0" result="BackgroundImageFix"/>
<feColorMatrix in="SourceAlpha" type="matrix" values="0 0 0 0 0 0 0 0 0 0 0 0 0 0 0 0 0 0 127 0" result="hardAlpha"/>
<feOffset dy="2"/>
<feGaussianBlur stdDeviation="2"/>
<feComposite in2="hardAlpha" operator="out"/>
<feColorMatrix type="matrix" values="0 0 0 0 0 0 0 0 0 0 0 0 0 0 0 0 0 0 0.1 0"/>
<feBlend mode="normal" in2="BackgroundImageFix" result="effect1_dropShadow_1327_1267"/>
<feBlend mode="normal" in="SourceGraphic" in2="effect1_dropShadow_1327_1267" result="shape"/>
</filter>
</defs>
</svg>
