<svg width="111" height="30" viewBox="0 0 111 30" fill="none" xmlns="http://www.w3.org/2000/svg">
<path d="M42.9385 23.2256C41.8285 23.2256 40.8044 23.0967 39.8662 22.8389C38.9352 22.5739 38.0257 22.1299 37.1377 21.5068V17.8115H39.3936L39.7373 20.0889C40.0882 20.361 40.543 20.5794 41.1016 20.7441C41.6673 20.9089 42.2796 20.9912 42.9385 20.9912C43.54 20.9912 44.0449 20.9089 44.4531 20.7441C44.8685 20.5723 45.1836 20.3324 45.3984 20.0244C45.6133 19.7093 45.7207 19.3441 45.7207 18.9287C45.7207 18.5277 45.624 18.1768 45.4307 17.876C45.2373 17.568 44.9186 17.2923 44.4746 17.0488C44.0378 16.7982 43.4434 16.5618 42.6914 16.3398C41.4883 16.0033 40.4857 15.6201 39.6836 15.1904C38.8815 14.7607 38.2799 14.2451 37.8789 13.6436C37.485 13.0348 37.2881 12.3115 37.2881 11.4736C37.2881 10.6357 37.5173 9.89453 37.9756 9.25C38.4411 8.59831 39.082 8.08626 39.8984 7.71387C40.722 7.34147 41.6673 7.15169 42.7344 7.14453C43.9232 7.13021 44.9723 7.27702 45.8818 7.58496C46.7913 7.8929 47.5684 8.30827 48.2129 8.83105V12.2686H46.0107L45.6133 10.1094C45.3268 9.91602 44.9508 9.7513 44.4854 9.61523C44.0199 9.47917 43.4827 9.41113 42.874 9.41113C42.3512 9.41113 41.8893 9.49349 41.4883 9.6582C41.0872 9.81576 40.7721 10.0485 40.543 10.3564C40.3138 10.6644 40.1992 11.0332 40.1992 11.4629C40.1992 11.8353 40.2995 12.1611 40.5 12.4404C40.7005 12.7197 41.0371 12.9775 41.5098 13.2139C41.9824 13.4502 42.6234 13.6937 43.4326 13.9443C45.1442 14.4098 46.4404 15.04 47.3213 15.835C48.2093 16.6227 48.6533 17.6468 48.6533 18.9072C48.6533 19.7809 48.4134 20.5436 47.9336 21.1953C47.4609 21.8398 46.7949 22.3411 45.9355 22.6992C45.0833 23.0501 44.0843 23.2256 42.9385 23.2256ZM54.5186 23.2148C53.4873 23.2148 52.6852 22.9284 52.1123 22.3555C51.5465 21.7754 51.2637 20.8587 51.2637 19.6055V13.4502H49.6201V11.377H51.2637V8.54102H54.1748V11.377H56.3984V13.4502H54.1748V19.6055C54.1748 20.0781 54.2751 20.4183 54.4756 20.626C54.6761 20.8337 54.9447 20.9375 55.2812 20.9375C55.4674 20.9375 55.6715 20.9232 55.8936 20.8945C56.1156 20.8659 56.3018 20.8372 56.4521 20.8086L56.7314 22.8818C56.4092 22.9749 56.0511 23.0537 55.6572 23.1182C55.2705 23.1826 54.891 23.2148 54.5186 23.2148ZM63.166 23.2256C62.0273 23.2256 61.0534 22.9749 60.2441 22.4736C59.4349 21.9723 58.8118 21.2777 58.375 20.3896C57.9382 19.4945 57.7197 18.4668 57.7197 17.3066V17.0811C57.7197 15.9281 57.9382 14.9076 58.375 14.0195C58.8118 13.1315 59.4349 12.4333 60.2441 11.9248C61.0534 11.4163 62.0202 11.1621 63.1445 11.1621C64.276 11.1621 65.2464 11.4163 66.0557 11.9248C66.8649 12.4261 67.4844 13.1208 67.9141 14.0088C68.3509 14.8968 68.5693 15.9209 68.5693 17.0811V17.3066C68.5693 18.4668 68.3509 19.4945 67.9141 20.3896C67.4844 21.2777 66.8649 21.9723 66.0557 22.4736C65.2464 22.9749 64.2832 23.2256 63.166 23.2256ZM63.166 20.9805C63.7318 20.9805 64.1973 20.8265 64.5625 20.5186C64.9349 20.2106 65.2106 19.7809 65.3896 19.2295C65.5687 18.6709 65.6582 18.0299 65.6582 17.3066V17.0811C65.6582 16.3649 65.5687 15.7311 65.3896 15.1797C65.2106 14.6283 64.9349 14.1986 64.5625 13.8906C64.1901 13.5755 63.7174 13.418 63.1445 13.418C62.5716 13.418 62.099 13.5755 61.7266 13.8906C61.3613 14.1986 61.0892 14.6283 60.9102 15.1797C60.7311 15.7311 60.6416 16.3649 60.6416 17.0811V17.3066C60.6416 18.0371 60.7311 18.6781 60.9102 19.2295C61.0892 19.7809 61.3649 20.2106 61.7373 20.5186C62.1097 20.8265 62.5859 20.9805 63.166 20.9805ZM75.6055 23.2256C74.5026 23.2256 73.5465 22.9785 72.7373 22.4844C71.9352 21.9831 71.3158 21.292 70.8789 20.4111C70.4421 19.5303 70.2236 18.5169 70.2236 17.3711V17.0166C70.2236 15.8851 70.4421 14.8789 70.8789 13.998C71.3229 13.1172 71.946 12.4261 72.748 11.9248C73.5501 11.4163 74.4954 11.1621 75.584 11.1621C76.6081 11.1621 77.4925 11.3232 78.2373 11.6455C78.9893 11.9678 79.598 12.3545 80.0635 12.8057V16.0283H77.8506L77.4424 13.9551C77.2562 13.7689 77.0199 13.6185 76.7334 13.5039C76.4469 13.3893 76.1426 13.332 75.8203 13.332C75.2402 13.332 74.7497 13.486 74.3486 13.7939C73.9548 14.0947 73.654 14.5208 73.4463 15.0723C73.2458 15.6165 73.1455 16.2646 73.1455 17.0166V17.3711C73.1455 18.1803 73.2529 18.8535 73.4678 19.3906C73.6826 19.9206 73.9762 20.318 74.3486 20.583C74.7282 20.848 75.1507 20.9805 75.6162 20.9805C76.2035 20.9805 76.6797 20.8265 77.0449 20.5186C77.4102 20.2035 77.6536 19.763 77.7754 19.1973H80.2783L80.3105 19.2617C80.2103 20.0495 79.9775 20.7441 79.6123 21.3457C79.2542 21.9401 78.7458 22.402 78.0869 22.7314C77.4352 23.0609 76.6081 23.2256 75.6055 23.2256ZM85.7998 19.0254L84.2852 17.2744L91.8906 9.31445L91.9121 9.27148L90.4512 9.13184V7.35938H96.585V9.13184L95.1133 9.42188L85.7998 19.0254ZM81.7393 23V21.2383L83.4258 20.916V9.4541L81.7393 9.13184V7.35938H87.9697V9.13184L86.3477 9.4541V20.916L87.9697 21.2383V23H81.7393ZM90.7949 23V21.2383L92.2236 21.0986V21.0879L88.1738 15.502L90.0645 13.5146L95.6289 20.9697L97.1436 21.2383V23H90.7949ZM102.998 23.2256C101.759 23.2256 100.789 22.8353 100.087 22.0547C99.3923 21.2669 99.0449 20.0459 99.0449 18.3916V13.4717L97.7559 13.1494V11.377H99.0449H101.967V18.4131C101.967 19.3298 102.117 19.9814 102.418 20.3682C102.726 20.7477 103.195 20.9375 103.825 20.9375C104.348 20.9375 104.803 20.8337 105.189 20.626C105.576 20.4183 105.888 20.1211 106.124 19.7344V13.4717L104.706 13.1494V11.377H106.124H109.046V20.916L110.432 21.2383V23H106.468L106.274 21.4746C105.909 22.0404 105.447 22.4736 104.889 22.7744C104.337 23.0752 103.707 23.2256 102.998 23.2256Z" fill="white"/>
<path d="M27 9.99984C26.8477 10.0005 26.6972 9.96626 26.56 9.89984L15 3.99984L3.44003 9.85984C3.19337 9.97654 2.91047 9.99047 2.65354 9.89858C2.39662 9.80669 2.18672 9.61649 2.07003 9.36984C1.95333 9.12319 1.9394 8.84029 2.03129 8.58336C2.12318 8.32644 2.31337 8.11654 2.56003 7.99984L15 1.83984L27.44 7.99984C27.7022 8.0611 27.9298 8.22319 28.0734 8.451C28.2169 8.67882 28.265 8.95402 28.2072 9.21701C28.1493 9.48001 27.9902 9.70963 27.7642 9.85614C27.5383 10.0027 27.2637 10.0543 27 9.99984ZM10 19.9998H4.00003V25.9998H10V19.9998ZM18 19.9998H12V25.9998H18V19.9998ZM26 19.9998H20V25.9998H26V19.9998ZM22 11.9998H16V17.9998H22V11.9998ZM14 11.9998H8.00003V17.9998H14V11.9998Z" fill="url(#paint0_linear_1327_41)"/>
<defs>
<linearGradient id="paint0_linear_1327_41" x1="15.1011" y1="1.83984" x2="15.1011" y2="25.9998" gradientUnits="userSpaceOnUse">
<stop offset="0.365" stop-color="#CBF3F0"/>
<stop offset="0.66" stop-color="white"/>
</linearGradient>
</defs>
</svg>
